<svg id="technical" xmlns="http://www.w3.org/2000/svg" viewBox="0 0 79.98 92"><defs><style>.cls-1{fill:#3099d6;}</style></defs><title>icon_technical</title><path class="cls-1" d="M76.78,63.4h0a2,2,0,0,0-2.88,0L51.26,86a3.25,3.25,0,0,0-.59,3.9,3.54,3.54,0,0,0,.53.68,3.11,3.11,0,0,0,1.84.91,3.18,3.18,0,0,0,2.68-.91L78.41,67.92a2.06,2.06,0,0,0,0-2.88Zm.57,3.46L54.66,89.55A1.71,1.71,0,0,1,52,89.18a1.77,1.77,0,0,1,.35-2.09L75,64.46a.55.55,0,0,1,.38-.16.57.57,0,0,1,.38.16h0l1.63,1.64A.54.54,0,0,1,77.35,66.86Z" transform="translate(-33.01 -22.5)"/><path class="cls-1" d="M73,22.5l-40,23v46l40,23,40-23v-46Zm22,41a11.82,11.82,0,0,1-12.23,2.82L76.18,73l3.22,3.22,1.72-1.72,12,12A4.05,4.05,0,0,1,94.26,90L82.94,78.67a.75.75,0,0,0-1.06,1.06L93.67,91.52a3.72,3.72,0,0,1-.53.67,4.14,4.14,0,0,1-.66.53L80.69,80.93a.74.74,0,0,0-1.06,0,.75.75,0,0,0,0,1.06L90.94,93.3a4,4,0,0,1-3.49-1.11l-12-12,1.72-1.72-3.22-3.23-17,17a5.19,5.19,0,1,1-7.34-7.34l17-17L56.43,57.72l-1,1-3.55-1.41-4.37-6.51,4.27-4.28,6.52,4.38,1.41,3.55-1,1L68.84,65.63,75.5,59a12,12,0,0,1,2.86-12.28,11.81,11.81,0,0,1,9.31-3.35.42.42,0,0,1,.27.71l-4.59,4.6,2.07,7.74,7.75,2.07,4.59-4.59a.42.42,0,0,1,.71.27A11.79,11.79,0,0,1,95.05,63.51Z" transform="translate(-33.01 -22.5)"/></svg>