<svg id="preventative" xmlns="http://www.w3.org/2000/svg" viewBox="0 0 79.98 92"><defs><style>.cls-1{fill:#d73291;}</style></defs><title>icon_preventative</title><path class="cls-1" d="M73,22.5l-40,23v46l40,23,40-23v-46ZM48,47.91a.56.56,0,0,1,.56-.56H71.11a.58.58,0,0,1,.58.58V59.1a.57.57,0,0,1-.56.57H48.58a.59.59,0,0,1-.58-.58Zm0,15a.56.56,0,0,1,.56-.57h7.69a.58.58,0,0,1,.58.58V74.1a.56.56,0,0,1-.56.56H48.58a.58.58,0,0,1-.58-.58ZM71.69,89.09a.56.56,0,0,1-.56.56H48.58a.58.58,0,0,1-.58-.58V77.9a.56.56,0,0,1,.56-.56H71.11a.58.58,0,0,1,.58.58ZM60.41,74.66a.56.56,0,0,1-.56-.56V62.92a.58.58,0,0,1,.58-.58H85.57a.58.58,0,0,1,.58.58V74.1a.56.56,0,0,1-.56.56ZM98,89.09a.56.56,0,0,1-.56.56H74.89a.58.58,0,0,1-.58-.58V77.9a.56.56,0,0,1,.56-.56H97.42a.58.58,0,0,1,.58.58Zm0-15a.56.56,0,0,1-.56.56H89.66a.58.58,0,0,1-.58-.58V62.91a.56.56,0,0,1,.57-.57h7.77a.58.58,0,0,1,.58.58Zm0-15a.57.57,0,0,1-.57.57H74.89a.59.59,0,0,1-.58-.58V47.91a.56.56,0,0,1,.56-.56H97.42a.58.58,0,0,1,.58.58Z" transform="translate(-33.01 -22.5)"/></svg>