<svg id="administrative" xmlns="http://www.w3.org/2000/svg" viewBox="0 0 79.98 92"><defs><style>.cls-1{fill:#3099d6;}</style></defs><title>icon_administrative</title><path class="cls-1" d="M94.37,82.57l1.53-2-2.25-2.78-2.44,1L90,78.12l-.69-2.33H85.76l-.69,2.33-1.21.63-2.44-1-2.24,2.78,1.52,2-.28,1.61L78.18,85.3l.69,3.3,2.58.23L82.28,90,82,92.36l3.08,1.47,1.64-1.73h1.66L90,93.83l3.07-1.47L92.8,90l.83-1.15,2.58-.23.69-3.3-2.24-1.12Zm-6.83,6.31a4.07,4.07,0,1,1,4.07-4.07A4.07,4.07,0,0,1,87.54,88.88Z" transform="translate(-33.01 -22.5)"/><path class="cls-1" d="M73,22.5l-40,23v46l40,23,40-23v-46ZM87.54,47.36a5.86,5.86,0,1,1-5.86,5.86A5.86,5.86,0,0,1,87.54,47.36ZM73,56.52a5.87,5.87,0,1,1-5.87,5.87A5.87,5.87,0,0,1,73,56.52ZM58.46,47.36a5.86,5.86,0,1,1-5.86,5.86A5.86,5.86,0,0,1,58.46,47.36ZM57.7,76l-.11,1.9H44.69l.47-11.22a3.44,3.44,0,0,1,2.08-3.16l6.59-2.84a.51.51,0,0,1,.59.16l4.07,3.42,4.08-3.42a.5.5,0,0,1,.58-.16l2.07.89a7.17,7.17,0,0,0-.08,1,7.85,7.85,0,0,0,2.39,5.64L61,71.05A5.44,5.44,0,0,0,57.7,76Zm39.56,3.48.85,1.06-.82,1.09L96.24,83l1.44.72,1.21.6-.27,1.33L97.93,89l-.27,1.27-1.29.11-1.75.16.2,1.65L95,93.4l-1.13.54-3.08,1.47L89.62,96,88.74,95l-1.12-1.18h-.16L86.34,95l-.88.92-1.14-.54-3.08-1.47-1.13-.54.15-1.25.2-1.65-1.75-.16-1.29-.11L77.15,89l-.39-1.9H59.21l.47-11.22a3.43,3.43,0,0,1,2.08-3.16l6.6-2.84a.48.48,0,0,1,.58.15L73,73.42l4-3.43a.48.48,0,0,1,.58-.15l6.6,2.84A3.39,3.39,0,0,1,85.8,74H88a5.51,5.51,0,0,0-2.9-3l-6.59-2.83a7.85,7.85,0,0,0,2.37-5.62,8.28,8.28,0,0,0-.07-1l2.12-.92a.51.51,0,0,1,.59.16l4.07,3.42,4.07-3.42a.51.51,0,0,1,.59-.16l6.6,2.84a3.44,3.44,0,0,1,2.08,3.16l.47,11.22H96Z" transform="translate(-33.01 -22.5)"/></svg>