<svg id="corrective" xmlns="http://www.w3.org/2000/svg" viewBox="0 0 79.98 92"><defs><style>.cls-1{fill:#d73291;}</style></defs><title>icon_corrective</title><path class="cls-1" d="M56,83.67a1.28,1.28,0,1,0,1.81,1.81A1.28,1.28,0,0,0,56,83.67Z" transform="translate(-33.01 -22.5)"/><circle class="cls-1" cx="26.72" cy="64.87" r="1.28"/><path class="cls-1" d="M61.94,83.35a1.28,1.28,0,0,0,1.81,1.8,1.28,1.28,0,0,0-1.81-1.8Z" transform="translate(-33.01 -22.5)"/><path class="cls-1" d="M62.27,77.43a1.27,1.27,0,1,0,1.8,0A1.27,1.27,0,0,0,62.27,77.43Z" transform="translate(-33.01 -22.5)"/><circle class="cls-1" cx="21.12" cy="59.27" r="1.28"/><circle class="cls-1" cx="27.04" cy="58.95" r="1.28"/><path class="cls-1" d="M87.27,50.43a1.27,1.27,0,1,0-1.8,0A1.27,1.27,0,0,0,87.27,50.43Z" transform="translate(-33.01 -22.5)"/><circle class="cls-1" cx="50.24" cy="30.15" r="1.28"/><circle class="cls-1" cx="47.12" cy="33.27" r="1.28"/><path class="cls-1" d="M58.15,79.56a1.28,1.28,0,1,0-1.8,0A1.28,1.28,0,0,0,58.15,79.56Z" transform="translate(-33.01 -22.5)"/><path class="cls-1" d="M61.27,76.43a1.27,1.27,0,1,0-1.8,0A1.27,1.27,0,0,0,61.27,76.43Z" transform="translate(-33.01 -22.5)"/><path class="cls-1" d="M75.89,58.93a2.24,2.24,0,0,0-3.1,0l-9.36,9.36a2.21,2.21,0,0,0-.64,1.55,2.18,2.18,0,0,0,.64,1.55l6.68,6.68a2.18,2.18,0,0,0,1.55.64,2.21,2.21,0,0,0,1.55-.64l9.36-9.36a2.21,2.21,0,0,0,.64-1.55,2.18,2.18,0,0,0-.64-1.55Zm5.62,8.72L72.15,77a.71.71,0,0,1-1,0l-6.68-6.68a.7.7,0,0,1,0-1L73.85,60a.7.7,0,0,1,1,0l6.68,6.68a.7.7,0,0,1,0,1Z" transform="translate(-33.01 -22.5)"/><circle class="cls-1" cx="56.16" cy="29.83" r="1.28"/><circle class="cls-1" cx="55.84" cy="35.75" r="1.28"/><path class="cls-1" d="M91.07,54.23a1.27,1.27,0,1,0,1.8,0A1.27,1.27,0,0,0,91.07,54.23Z" transform="translate(-33.01 -22.5)"/><path class="cls-1" d="M73,22.5l-40,23v46l40,23,40-23v-46ZM50.89,46.39a9.25,9.25,0,0,1,11.33-1.63l9.37,9.37-13,13-9.37-9.37A9.25,9.25,0,0,1,50.89,46.39ZM95.11,90.61a9.25,9.25,0,0,1-11.33,1.63l-9.37-9.37,13-13,9.37,9.37A9.25,9.25,0,0,1,95.11,90.61Zm1.63-32.89L62.22,92.24a9.55,9.55,0,0,1-13-13L83.78,44.76a9.55,9.55,0,0,1,13,13Z" transform="translate(-33.01 -22.5)"/><path class="cls-1" d="M82,57.67a1.28,1.28,0,1,0,1.81,1.81A1.28,1.28,0,0,0,82,57.67Z" transform="translate(-33.01 -22.5)"/><path class="cls-1" d="M65.07,80.23a1.27,1.27,0,1,0,1.8,0A1.27,1.27,0,0,0,65.07,80.23Z" transform="translate(-33.01 -22.5)"/><path class="cls-1" d="M85.15,54.55a1.27,1.27,0,1,0,1.8,0A1.27,1.27,0,0,0,85.15,54.55Z" transform="translate(-33.01 -22.5)"/><path class="cls-1" d="M84.82,60.47a1.28,1.28,0,1,0,1.81,1.8,1.28,1.28,0,0,0-1.81-1.8Z" transform="translate(-33.01 -22.5)"/></svg>