<?xml version="1.0" encoding="UTF-8"?>
<svg version="1.1" viewBox="0 0 113.7 100.7" xmlns="http://www.w3.org/2000/svg" xmlns:cc="http://creativecommons.org/ns#" xmlns:dc="http://purl.org/dc/elements/1.1/" xmlns:rdf="http://www.w3.org/1999/02/22-rdf-syntax-ns#">
 <metadata>
  <rdf:RDF>
   <cc:Work rdf:about="">
    <dc:format>image/svg+xml</dc:format>
    <dc:type rdf:resource="http://purl.org/dc/dcmitype/StillImage"/>
    <dc:title/>
   </cc:Work>
  </rdf:RDF>
 </metadata>

 <path class="st0" d="M70.5 37.2V16.8l18-10.3 18.1 10.2v20.4L88.5 47.5l-18-10.3zm18-33.7L67.8 15.2v23.5l20.7 11.7L109 38.8V15.1L88.5 3.5z"/>
 <path class="st0" d="M41.5 97.2L4.6 76.4V34.7l36.9-20.8 21.8 12.2.1 7.1-21.9-12.3-30.8 17.3v34.6l30.8 17.4 30.8-17.4V47.4l6.1 3.4v25.6z"/>
 <path class="st0" d="M44 63l-3.3 2.8c2.4 2.6 5.5 3.9 8.8 3.9 5.6 0 9.7-4.1 9.7-9.3 0-5.4-3.8-9.1-9.4-9.1-.8 0-1.7.1-2.6.2l.3-4.6h9.1l1.4-4.3H43.7l-.6 13.9c1.7-1 3.7-1.5 5.5-1.5 3.6 0 6 2.3 6 5.3 0 2.9-2.3 5.1-5.2 5.1-1.9 0-3.8-.8-5.4-2.4m-20.2 5.9h4.6V57.3H38v-4h-9.7v-6.7h10.9v-4.1H23.8v26.4zM91.3 29.9v-2.4h.9c.9 0 1.4.4 1.4 1.2 0 .8-.5 1.2-1.4 1.2h-.9zm0-3.4v-2.1h.7c1 0 1.5.3 1.5 1s-.5 1.1-1.4 1.1h-.8zm-1.2 4.4h2c1.9 0 2.9-.7 2.9-2.2 0-.9-.5-1.6-1.4-1.8.8-.3 1.2-.8 1.2-1.6 0-1.2-.8-1.9-2.5-1.9H90v7.5zm-5.9-2.4l1.2-2.8 1.2 2.8h-2.4zM83 30.9l.6-1.3H87l.6 1.3H89l-3.6-7.8h-.1l-3.7 7.8H83zm-6.5 0H81v-1.2h-3.2v-6.4h-1.3v7.6zM100.1 23.4c-.4-.2-.8-.3-1.2-.3-.6 0-1.1.2-1.5.6-.4.4-.6.8-.6 1.3 0 .2 0 .4.1.6.1.2.2.4.4.6.2.2.4.4.6.5.2.1.5.3 1 .5.4.2.7.3.9.4.2.1.3.3.5.5.1.2.2.4.2.6 0 .3-.1.6-.4.8-.2.2-.5.3-.9.3-.8 0-1.3-.4-1.7-1.2l-1 .3c.3.7.6 1.2 1.1 1.5.5.3 1 .5 1.6.5.6 0 1.2-.2 1.6-.6.4-.4.7-1 .7-1.6 0-.3 0-.5-.1-.7-.1-.2-.2-.5-.4-.7l-.6-.6c-.3-.2-.6-.4-1.1-.6-.5-.2-.8-.4-1-.6-.2-.2-.3-.4-.3-.6 0-.3.1-.5.3-.6.2-.2.5-.2.9-.2.3 0 .6.1.8.2.2.1.4.3.6.5l.8-.7c-.6-.3-.9-.5-1.3-.7z"/>
</svg>
